<?xml version="1.0" encoding="utf-8" standalone="no"?>
<!DOCTYPE svg PUBLIC "-//W3C//DTD SVG 1.1//EN"
  "http://www.w3.org/Graphics/SVG/1.1/DTD/svg11.dtd">
<svg xmlns:xlink="http://www.w3.org/1999/xlink" width="720pt" height="432pt" viewBox="0 0 720 432" xmlns="http://www.w3.org/2000/svg" version="1.1">
 <metadata>
  <rdf:RDF xmlns:dc="http://purl.org/dc/elements/1.1/" xmlns:cc="http://creativecommons.org/ns#" xmlns:rdf="http://www.w3.org/1999/02/22-rdf-syntax-ns#">
   <cc:Work>
    <dc:type rdf:resource="http://purl.org/dc/dcmitype/StillImage"/>
    <dc:date>2025-12-08T14:38:43.743430</dc:date>
    <dc:format>image/svg+xml</dc:format>
    <dc:creator>
     <cc:Agent>
      <dc:title>Matplotlib v3.10.1, https://matplotlib.org/</dc:title>
     </cc:Agent>
    </dc:creator>
   </cc:Work>
  </rdf:RDF>
 </metadata>
 <defs>
  <style type="text/css">*{stroke-linejoin: round; stroke-linecap: butt}</style>
 </defs>
 <g id="figure_1">
  <g id="patch_1">
   <path d="M 0 432 
L 720 432 
L 720 0 
L 0 0 
z
" style="fill: #ffffff"/>
  </g>
  <g id="axes_1">
   <g id="patch_2">
    <path d="M 60.3245 390.04 
L 709.2 390.04 
L 709.2 26.88 
L 60.3245 26.88 
z
" style="fill: #ffffff"/>
   </g>
   <g id="matplotlib.axis_1">
    <g id="xtick_1">
     <g id="line2d_1">
      <path d="M 89.818841 390.04 
L 89.818841 26.88 
" clip-path="url(#p9435d1aff9)" style="fill: none; stroke: #b0b0b0; stroke-opacity: 0.3; stroke-width: 0.8; stroke-linecap: square"/>
     </g>
     <g id="line2d_2">
      <defs>
       <path id="mba2987c685" d="M 0 0 
L 0 3.5 
" style="stroke: #000000; stroke-width: 0.8"/>
      </defs>
      <g>
       <use xlink:href="#mba2987c685" x="89.818841" y="390.04" style="stroke: #000000; stroke-width: 0.8"/>
      </g>
     </g>
     <g id="text_1">
      <!-- 0 -->
      <g transform="translate(86.637591 404.638438) scale(0.1 -0.1)">
       <defs>
        <path id="DejaVuSans-30" d="M 2034 4250 
Q 1547 4250 1301 3770 
Q 1056 3291 1056 2328 
Q 1056 1369 1301 889 
Q 1547 409 2034 409 
Q 2525 409 2770 889 
Q 3016 1369 3016 2328 
Q 3016 3291 2770 3770 
Q 2525 4250 2034 4250 
z
M 2034 4750 
Q 2819 4750 3233 4129 
Q 3647 3509 3647 2328 
Q 3647 1150 3233 529 
Q 2819 -91 2034 -91 
Q 1250 -91 836 529 
Q 422 1150 422 2328 
Q 422 3509 836 4129 
Q 1250 4750 2034 4750 
z
" transform="scale(0.015625)"/>
       </defs>
       <use xlink:href="#DejaVuSans-30"/>
      </g>
     </g>
    </g>
    <g id="xtick_2">
     <g id="line2d_3">
      <path d="M 189.867487 390.04 
L 189.867487 26.88 
" clip-path="url(#p9435d1aff9)" style="fill: none; stroke: #b0b0b0; stroke-opacity: 0.3; stroke-width: 0.8; stroke-linecap: square"/>
     </g>
     <g id="line2d_4">
      <g>
       <use xlink:href="#mba2987c685" x="189.867487" y="390.04" style="stroke: #000000; stroke-width: 0.8"/>
      </g>
     </g>
     <g id="text_2">
      <!-- 500 -->
      <g transform="translate(180.323737 404.638438) scale(0.1 -0.1)">
       <defs>
        <path id="DejaVuSans-35" d="M 691 4666 
L 3169 4666 
L 3169 4134 
L 1269 4134 
L 1269 2991 
Q 1406 3038 1543 3061 
Q 1681 3084 1819 3084 
Q 2600 3084 3056 2656 
Q 3513 2228 3513 1497 
Q 3513 744 3044 326 
Q 2575 -91 1722 -91 
Q 1428 -91 1123 -41 
Q 819 9 494 109 
L 494 744 
Q 775 591 1075 516 
Q 1375 441 1709 441 
Q 2250 441 2565 725 
Q 2881 1009 2881 1497 
Q 2881 1984 2565 2268 
Q 2250 2553 1709 2553 
Q 1456 2553 1204 2497 
Q 953 2441 691 2322 
L 691 4666 
z
" transform="scale(0.015625)"/>
       </defs>
       <use xlink:href="#DejaVuSans-35"/>
       <use xlink:href="#DejaVuSans-30" transform="translate(63.623047 0)"/>
       <use xlink:href="#DejaVuSans-30" transform="translate(127.246094 0)"/>
      </g>
     </g>
    </g>
    <g id="xtick_3">
     <g id="line2d_5">
      <path d="M 289.916133 390.04 
L 289.916133 26.88 
" clip-path="url(#p9435d1aff9)" style="fill: none; stroke: #b0b0b0; stroke-opacity: 0.3; stroke-width: 0.8; stroke-linecap: square"/>
     </g>
     <g id="line2d_6">
      <g>
       <use xlink:href="#mba2987c685" x="289.916133" y="390.04" style="stroke: #000000; stroke-width: 0.8"/>
      </g>
     </g>
     <g id="text_3">
      <!-- 1000 -->
      <g transform="translate(277.191133 404.638438) scale(0.1 -0.1)">
       <defs>
        <path id="DejaVuSans-31" d="M 794 531 
L 1825 531 
L 1825 4091 
L 703 3866 
L 703 4441 
L 1819 4666 
L 2450 4666 
L 2450 531 
L 3481 531 
L 3481 0 
L 794 0 
L 794 531 
z
" transform="scale(0.015625)"/>
       </defs>
       <use xlink:href="#DejaVuSans-31"/>
       <use xlink:href="#DejaVuSans-30" transform="translate(63.623047 0)"/>
       <use xlink:href="#DejaVuSans-30" transform="translate(127.246094 0)"/>
       <use xlink:href="#DejaVuSans-30" transform="translate(190.869141 0)"/>
      </g>
     </g>
    </g>
    <g id="xtick_4">
     <g id="line2d_7">
      <path d="M 389.96478 390.04 
L 389.96478 26.88 
" clip-path="url(#p9435d1aff9)" style="fill: none; stroke: #b0b0b0; stroke-opacity: 0.3; stroke-width: 0.8; stroke-linecap: square"/>
     </g>
     <g id="line2d_8">
      <g>
       <use xlink:href="#mba2987c685" x="389.96478" y="390.04" style="stroke: #000000; stroke-width: 0.8"/>
      </g>
     </g>
     <g id="text_4">
      <!-- 1500 -->
      <g transform="translate(377.23978 404.638438) scale(0.1 -0.1)">
       <use xlink:href="#DejaVuSans-31"/>
       <use xlink:href="#DejaVuSans-35" transform="translate(63.623047 0)"/>
       <use xlink:href="#DejaVuSans-30" transform="translate(127.246094 0)"/>
       <use xlink:href="#DejaVuSans-30" transform="translate(190.869141 0)"/>
      </g>
     </g>
    </g>
    <g id="xtick_5">
     <g id="line2d_9">
      <path d="M 490.013426 390.04 
L 490.013426 26.88 
" clip-path="url(#p9435d1aff9)" style="fill: none; stroke: #b0b0b0; stroke-opacity: 0.3; stroke-width: 0.8; stroke-linecap: square"/>
     </g>
     <g id="line2d_10">
      <g>
       <use xlink:href="#mba2987c685" x="490.013426" y="390.04" style="stroke: #000000; stroke-width: 0.8"/>
      </g>
     </g>
     <g id="text_5">
      <!-- 2000 -->
      <g transform="translate(477.288426 404.638438) scale(0.1 -0.1)">
       <defs>
        <path id="DejaVuSans-32" d="M 1228 531 
L 3431 531 
L 3431 0 
L 469 0 
L 469 531 
Q 828 903 1448 1529 
Q 2069 2156 2228 2338 
Q 2531 2678 2651 2914 
Q 2772 3150 2772 3378 
Q 2772 3750 2511 3984 
Q 2250 4219 1831 4219 
Q 1534 4219 1204 4116 
Q 875 4013 500 3803 
L 500 4441 
Q 881 4594 1212 4672 
Q 1544 4750 1819 4750 
Q 2544 4750 2975 4387 
Q 3406 4025 3406 3419 
Q 3406 3131 3298 2873 
Q 3191 2616 2906 2266 
Q 2828 2175 2409 1742 
Q 1991 1309 1228 531 
z
" transform="scale(0.015625)"/>
       </defs>
       <use xlink:href="#DejaVuSans-32"/>
       <use xlink:href="#DejaVuSans-30" transform="translate(63.623047 0)"/>
       <use xlink:href="#DejaVuSans-30" transform="translate(127.246094 0)"/>
       <use xlink:href="#DejaVuSans-30" transform="translate(190.869141 0)"/>
      </g>
     </g>
    </g>
    <g id="xtick_6">
     <g id="line2d_11">
      <path d="M 590.062072 390.04 
L 590.062072 26.88 
" clip-path="url(#p9435d1aff9)" style="fill: none; stroke: #b0b0b0; stroke-opacity: 0.3; stroke-width: 0.8; stroke-linecap: square"/>
     </g>
     <g id="line2d_12">
      <g>
       <use xlink:href="#mba2987c685" x="590.062072" y="390.04" style="stroke: #000000; stroke-width: 0.8"/>
      </g>
     </g>
     <g id="text_6">
      <!-- 2500 -->
      <g transform="translate(577.337072 404.638438) scale(0.1 -0.1)">
       <use xlink:href="#DejaVuSans-32"/>
       <use xlink:href="#DejaVuSans-35" transform="translate(63.623047 0)"/>
       <use xlink:href="#DejaVuSans-30" transform="translate(127.246094 0)"/>
       <use xlink:href="#DejaVuSans-30" transform="translate(190.869141 0)"/>
      </g>
     </g>
    </g>
    <g id="xtick_7">
     <g id="line2d_13">
      <path d="M 690.110718 390.04 
L 690.110718 26.88 
" clip-path="url(#p9435d1aff9)" style="fill: none; stroke: #b0b0b0; stroke-opacity: 0.3; stroke-width: 0.8; stroke-linecap: square"/>
     </g>
     <g id="line2d_14">
      <g>
       <use xlink:href="#mba2987c685" x="690.110718" y="390.04" style="stroke: #000000; stroke-width: 0.8"/>
      </g>
     </g>
     <g id="text_7">
      <!-- 3000 -->
      <g transform="translate(677.385718 404.638438) scale(0.1 -0.1)">
       <defs>
        <path id="DejaVuSans-33" d="M 2597 2516 
Q 3050 2419 3304 2112 
Q 3559 1806 3559 1356 
Q 3559 666 3084 287 
Q 2609 -91 1734 -91 
Q 1441 -91 1130 -33 
Q 819 25 488 141 
L 488 750 
Q 750 597 1062 519 
Q 1375 441 1716 441 
Q 2309 441 2620 675 
Q 2931 909 2931 1356 
Q 2931 1769 2642 2001 
Q 2353 2234 1838 2234 
L 1294 2234 
L 1294 2753 
L 1863 2753 
Q 2328 2753 2575 2939 
Q 2822 3125 2822 3475 
Q 2822 3834 2567 4026 
Q 2313 4219 1838 4219 
Q 1578 4219 1281 4162 
Q 984 4106 628 3988 
L 628 4550 
Q 988 4650 1302 4700 
Q 1616 4750 1894 4750 
Q 2613 4750 3031 4423 
Q 3450 4097 3450 3541 
Q 3450 3153 3228 2886 
Q 3006 2619 2597 2516 
z
" transform="scale(0.015625)"/>
       </defs>
       <use xlink:href="#DejaVuSans-33"/>
       <use xlink:href="#DejaVuSans-30" transform="translate(63.623047 0)"/>
       <use xlink:href="#DejaVuSans-30" transform="translate(127.246094 0)"/>
       <use xlink:href="#DejaVuSans-30" transform="translate(190.869141 0)"/>
      </g>
     </g>
    </g>
    <g id="text_8">
     <!-- Time Steps -->
     <g transform="translate(356.94975 418.316562) scale(0.1 -0.1)">
      <defs>
       <path id="DejaVuSans-54" d="M -19 4666 
L 3928 4666 
L 3928 4134 
L 2272 4134 
L 2272 0 
L 1638 0 
L 1638 4134 
L -19 4134 
L -19 4666 
z
" transform="scale(0.015625)"/>
       <path id="DejaVuSans-69" d="M 603 3500 
L 1178 3500 
L 1178 0 
L 603 0 
L 603 3500 
z
M 603 4863 
L 1178 4863 
L 1178 4134 
L 603 4134 
L 603 4863 
z
" transform="scale(0.015625)"/>
       <path id="DejaVuSans-6d" d="M 3328 2828 
Q 3544 3216 3844 3400 
Q 4144 3584 4550 3584 
Q 5097 3584 5394 3201 
Q 5691 2819 5691 2113 
L 5691 0 
L 5113 0 
L 5113 2094 
Q 5113 2597 4934 2840 
Q 4756 3084 4391 3084 
Q 3944 3084 3684 2787 
Q 3425 2491 3425 1978 
L 3425 0 
L 2847 0 
L 2847 2094 
Q 2847 2600 2669 2842 
Q 2491 3084 2119 3084 
Q 1678 3084 1418 2786 
Q 1159 2488 1159 1978 
L 1159 0 
L 581 0 
L 581 3500 
L 1159 3500 
L 1159 2956 
Q 1356 3278 1631 3431 
Q 1906 3584 2284 3584 
Q 2666 3584 2933 3390 
Q 3200 3197 3328 2828 
z
" transform="scale(0.015625)"/>
       <path id="DejaVuSans-65" d="M 3597 1894 
L 3597 1613 
L 953 1613 
Q 991 1019 1311 708 
Q 1631 397 2203 397 
Q 2534 397 2845 478 
Q 3156 559 3463 722 
L 3463 178 
Q 3153 47 2828 -22 
Q 2503 -91 2169 -91 
Q 1331 -91 842 396 
Q 353 884 353 1716 
Q 353 2575 817 3079 
Q 1281 3584 2069 3584 
Q 2775 3584 3186 3129 
Q 3597 2675 3597 1894 
z
M 3022 2063 
Q 3016 2534 2758 2815 
Q 2500 3097 2075 3097 
Q 1594 3097 1305 2825 
Q 1016 2553 972 2059 
L 3022 2063 
z
" transform="scale(0.015625)"/>
       <path id="DejaVuSans-20" transform="scale(0.015625)"/>
       <path id="DejaVuSans-53" d="M 3425 4513 
L 3425 3897 
Q 3066 4069 2747 4153 
Q 2428 4238 2131 4238 
Q 1616 4238 1336 4038 
Q 1056 3838 1056 3469 
Q 1056 3159 1242 3001 
Q 1428 2844 1947 2747 
L 2328 2669 
Q 3034 2534 3370 2195 
Q 3706 1856 3706 1288 
Q 3706 609 3251 259 
Q 2797 -91 1919 -91 
Q 1588 -91 1214 -16 
Q 841 59 441 206 
L 441 856 
Q 825 641 1194 531 
Q 1563 422 1919 422 
Q 2459 422 2753 634 
Q 3047 847 3047 1241 
Q 3047 1584 2836 1778 
Q 2625 1972 2144 2069 
L 1759 2144 
Q 1053 2284 737 2584 
Q 422 2884 422 3419 
Q 422 4038 858 4394 
Q 1294 4750 2059 4750 
Q 2388 4750 2728 4690 
Q 3069 4631 3425 4513 
z
" transform="scale(0.015625)"/>
       <path id="DejaVuSans-74" d="M 1172 4494 
L 1172 3500 
L 2356 3500 
L 2356 3053 
L 1172 3053 
L 1172 1153 
Q 1172 725 1289 603 
Q 1406 481 1766 481 
L 2356 481 
L 2356 0 
L 1766 0 
Q 1100 0 847 248 
Q 594 497 594 1153 
L 594 3053 
L 172 3053 
L 172 3500 
L 594 3500 
L 594 4494 
L 1172 4494 
z
" transform="scale(0.015625)"/>
       <path id="DejaVuSans-70" d="M 1159 525 
L 1159 -1331 
L 581 -1331 
L 581 3500 
L 1159 3500 
L 1159 2969 
Q 1341 3281 1617 3432 
Q 1894 3584 2278 3584 
Q 2916 3584 3314 3078 
Q 3713 2572 3713 1747 
Q 3713 922 3314 415 
Q 2916 -91 2278 -91 
Q 1894 -91 1617 61 
Q 1341 213 1159 525 
z
M 3116 1747 
Q 3116 2381 2855 2742 
Q 2594 3103 2138 3103 
Q 1681 3103 1420 2742 
Q 1159 2381 1159 1747 
Q 1159 1113 1420 752 
Q 1681 391 2138 391 
Q 2594 391 2855 752 
Q 3116 1113 3116 1747 
z
" transform="scale(0.015625)"/>
       <path id="DejaVuSans-73" d="M 2834 3397 
L 2834 2853 
Q 2591 2978 2328 3040 
Q 2066 3103 1784 3103 
Q 1356 3103 1142 2972 
Q 928 2841 928 2578 
Q 928 2378 1081 2264 
Q 1234 2150 1697 2047 
L 1894 2003 
Q 2506 1872 2764 1633 
Q 3022 1394 3022 966 
Q 3022 478 2636 193 
Q 2250 -91 1575 -91 
Q 1294 -91 989 -36 
Q 684 19 347 128 
L 347 722 
Q 666 556 975 473 
Q 1284 391 1588 391 
Q 1994 391 2212 530 
Q 2431 669 2431 922 
Q 2431 1156 2273 1281 
Q 2116 1406 1581 1522 
L 1381 1569 
Q 847 1681 609 1914 
Q 372 2147 372 2553 
Q 372 3047 722 3315 
Q 1072 3584 1716 3584 
Q 2034 3584 2315 3537 
Q 2597 3491 2834 3397 
z
" transform="scale(0.015625)"/>
      </defs>
      <use xlink:href="#DejaVuSans-54"/>
      <use xlink:href="#DejaVuSans-69" transform="translate(57.958984 0)"/>
      <use xlink:href="#DejaVuSans-6d" transform="translate(85.742188 0)"/>
      <use xlink:href="#DejaVuSans-65" transform="translate(183.154297 0)"/>
      <use xlink:href="#DejaVuSans-20" transform="translate(244.677734 0)"/>
      <use xlink:href="#DejaVuSans-53" transform="translate(276.464844 0)"/>
      <use xlink:href="#DejaVuSans-74" transform="translate(339.941406 0)"/>
      <use xlink:href="#DejaVuSans-65" transform="translate(379.150391 0)"/>
      <use xlink:href="#DejaVuSans-70" transform="translate(440.673828 0)"/>
      <use xlink:href="#DejaVuSans-73" transform="translate(504.150391 0)"/>
     </g>
    </g>
   </g>
   <g id="matplotlib.axis_2">
    <g id="ytick_1">
     <g id="line2d_15">
      <path d="M 60.3245 374.502062 
L 709.2 374.502062 
" clip-path="url(#p9435d1aff9)" style="fill: none; stroke: #b0b0b0; stroke-opacity: 0.3; stroke-width: 0.8; stroke-linecap: square"/>
     </g>
     <g id="line2d_16">
      <defs>
       <path id="m4f25d661a7" d="M 0 0 
L -3.5 0 
" style="stroke: #000000; stroke-width: 0.8"/>
      </defs>
      <g>
       <use xlink:href="#m4f25d661a7" x="60.3245" y="374.502062" style="stroke: #000000; stroke-width: 0.8"/>
      </g>
     </g>
     <g id="text_9">
      <!-- −2.0 -->
      <g transform="translate(29.041688 378.301281) scale(0.1 -0.1)">
       <defs>
        <path id="DejaVuSans-2212" d="M 678 2272 
L 4684 2272 
L 4684 1741 
L 678 1741 
L 678 2272 
z
" transform="scale(0.015625)"/>
        <path id="DejaVuSans-2e" d="M 684 794 
L 1344 794 
L 1344 0 
L 684 0 
L 684 794 
z
" transform="scale(0.015625)"/>
       </defs>
       <use xlink:href="#DejaVuSans-2212"/>
       <use xlink:href="#DejaVuSans-32" transform="translate(83.789062 0)"/>
       <use xlink:href="#DejaVuSans-2e" transform="translate(147.412109 0)"/>
       <use xlink:href="#DejaVuSans-30" transform="translate(179.199219 0)"/>
      </g>
     </g>
    </g>
    <g id="ytick_2">
     <g id="line2d_17">
      <path d="M 60.3245 330.479703 
L 709.2 330.479703 
" clip-path="url(#p9435d1aff9)" style="fill: none; stroke: #b0b0b0; stroke-opacity: 0.3; stroke-width: 0.8; stroke-linecap: square"/>
     </g>
     <g id="line2d_18">
      <g>
       <use xlink:href="#m4f25d661a7" x="60.3245" y="330.479703" style="stroke: #000000; stroke-width: 0.8"/>
      </g>
     </g>
     <g id="text_10">
      <!-- −1.5 -->
      <g transform="translate(29.041688 334.278922) scale(0.1 -0.1)">
       <use xlink:href="#DejaVuSans-2212"/>
       <use xlink:href="#DejaVuSans-31" transform="translate(83.789062 0)"/>
       <use xlink:href="#DejaVuSans-2e" transform="translate(147.412109 0)"/>
       <use xlink:href="#DejaVuSans-35" transform="translate(179.199219 0)"/>
      </g>
     </g>
    </g>
    <g id="ytick_3">
     <g id="line2d_19">
      <path d="M 60.3245 286.457343 
L 709.2 286.457343 
" clip-path="url(#p9435d1aff9)" style="fill: none; stroke: #b0b0b0; stroke-opacity: 0.3; stroke-width: 0.8; stroke-linecap: square"/>
     </g>
     <g id="line2d_20">
      <g>
       <use xlink:href="#m4f25d661a7" x="60.3245" y="286.457343" style="stroke: #000000; stroke-width: 0.8"/>
      </g>
     </g>
     <g id="text_11">
      <!-- −1.0 -->
      <g transform="translate(29.041688 290.256562) scale(0.1 -0.1)">
       <use xlink:href="#DejaVuSans-2212"/>
       <use xlink:href="#DejaVuSans-31" transform="translate(83.789062 0)"/>
       <use xlink:href="#DejaVuSans-2e" transform="translate(147.412109 0)"/>
       <use xlink:href="#DejaVuSans-30" transform="translate(179.199219 0)"/>
      </g>
     </g>
    </g>
    <g id="ytick_4">
     <g id="line2d_21">
      <path d="M 60.3245 242.434984 
L 709.2 242.434984 
" clip-path="url(#p9435d1aff9)" style="fill: none; stroke: #b0b0b0; stroke-opacity: 0.3; stroke-width: 0.8; stroke-linecap: square"/>
     </g>
     <g id="line2d_22">
      <g>
       <use xlink:href="#m4f25d661a7" x="60.3245" y="242.434984" style="stroke: #000000; stroke-width: 0.8"/>
      </g>
     </g>
     <g id="text_12">
      <!-- −0.5 -->
      <g transform="translate(29.041688 246.234203) scale(0.1 -0.1)">
       <use xlink:href="#DejaVuSans-2212"/>
       <use xlink:href="#DejaVuSans-30" transform="translate(83.789062 0)"/>
       <use xlink:href="#DejaVuSans-2e" transform="translate(147.412109 0)"/>
       <use xlink:href="#DejaVuSans-35" transform="translate(179.199219 0)"/>
      </g>
     </g>
    </g>
    <g id="ytick_5">
     <g id="line2d_23">
      <path d="M 60.3245 198.412625 
L 709.2 198.412625 
" clip-path="url(#p9435d1aff9)" style="fill: none; stroke: #b0b0b0; stroke-opacity: 0.3; stroke-width: 0.8; stroke-linecap: square"/>
     </g>
     <g id="line2d_24">
      <g>
       <use xlink:href="#m4f25d661a7" x="60.3245" y="198.412625" style="stroke: #000000; stroke-width: 0.8"/>
      </g>
     </g>
     <g id="text_13">
      <!-- 0.0 -->
      <g transform="translate(37.421375 202.211844) scale(0.1 -0.1)">
       <use xlink:href="#DejaVuSans-30"/>
       <use xlink:href="#DejaVuSans-2e" transform="translate(63.623047 0)"/>
       <use xlink:href="#DejaVuSans-30" transform="translate(95.410156 0)"/>
      </g>
     </g>
    </g>
    <g id="ytick_6">
     <g id="line2d_25">
      <path d="M 60.3245 154.390265 
L 709.2 154.390265 
" clip-path="url(#p9435d1aff9)" style="fill: none; stroke: #b0b0b0; stroke-opacity: 0.3; stroke-width: 0.8; stroke-linecap: square"/>
     </g>
     <g id="line2d_26">
      <g>
       <use xlink:href="#m4f25d661a7" x="60.3245" y="154.390265" style="stroke: #000000; stroke-width: 0.8"/>
      </g>
     </g>
     <g id="text_14">
      <!-- 0.5 -->
      <g transform="translate(37.421375 158.189484) scale(0.1 -0.1)">
       <use xlink:href="#DejaVuSans-30"/>
       <use xlink:href="#DejaVuSans-2e" transform="translate(63.623047 0)"/>
       <use xlink:href="#DejaVuSans-35" transform="translate(95.410156 0)"/>
      </g>
     </g>
    </g>
    <g id="ytick_7">
     <g id="line2d_27">
      <path d="M 60.3245 110.367906 
L 709.2 110.367906 
" clip-path="url(#p9435d1aff9)" style="fill: none; stroke: #b0b0b0; stroke-opacity: 0.3; stroke-width: 0.8; stroke-linecap: square"/>
     </g>
     <g id="line2d_28">
      <g>
       <use xlink:href="#m4f25d661a7" x="60.3245" y="110.367906" style="stroke: #000000; stroke-width: 0.8"/>
      </g>
     </g>
     <g id="text_15">
      <!-- 1.0 -->
      <g transform="translate(37.421375 114.167125) scale(0.1 -0.1)">
       <use xlink:href="#DejaVuSans-31"/>
       <use xlink:href="#DejaVuSans-2e" transform="translate(63.623047 0)"/>
       <use xlink:href="#DejaVuSans-30" transform="translate(95.410156 0)"/>
      </g>
     </g>
    </g>
    <g id="ytick_8">
     <g id="line2d_29">
      <path d="M 60.3245 66.345547 
L 709.2 66.345547 
" clip-path="url(#p9435d1aff9)" style="fill: none; stroke: #b0b0b0; stroke-opacity: 0.3; stroke-width: 0.8; stroke-linecap: square"/>
     </g>
     <g id="line2d_30">
      <g>
       <use xlink:href="#m4f25d661a7" x="60.3245" y="66.345547" style="stroke: #000000; stroke-width: 0.8"/>
      </g>
     </g>
     <g id="text_16">
      <!-- 1.5 -->
      <g transform="translate(37.421375 70.144765) scale(0.1 -0.1)">
       <use xlink:href="#DejaVuSans-31"/>
       <use xlink:href="#DejaVuSans-2e" transform="translate(63.623047 0)"/>
       <use xlink:href="#DejaVuSans-35" transform="translate(95.410156 0)"/>
      </g>
     </g>
    </g>
    <g id="text_17">
     <!-- CA1 [molm$^{-3}$] -->
     <g transform="translate(22.962 243.61) rotate(-90) scale(0.1 -0.1)">
      <defs>
       <path id="DejaVuSans-43" d="M 4122 4306 
L 4122 3641 
Q 3803 3938 3442 4084 
Q 3081 4231 2675 4231 
Q 1875 4231 1450 3742 
Q 1025 3253 1025 2328 
Q 1025 1406 1450 917 
Q 1875 428 2675 428 
Q 3081 428 3442 575 
Q 3803 722 4122 1019 
L 4122 359 
Q 3791 134 3420 21 
Q 3050 -91 2638 -91 
Q 1578 -91 968 557 
Q 359 1206 359 2328 
Q 359 3453 968 4101 
Q 1578 4750 2638 4750 
Q 3056 4750 3426 4639 
Q 3797 4528 4122 4306 
z
" transform="scale(0.015625)"/>
       <path id="DejaVuSans-41" d="M 2188 4044 
L 1331 1722 
L 3047 1722 
L 2188 4044 
z
M 1831 4666 
L 2547 4666 
L 4325 0 
L 3669 0 
L 3244 1197 
L 1141 1197 
L 716 0 
L 50 0 
L 1831 4666 
z
" transform="scale(0.015625)"/>
       <path id="DejaVuSans-5b" d="M 550 4863 
L 1875 4863 
L 1875 4416 
L 1125 4416 
L 1125 -397 
L 1875 -397 
L 1875 -844 
L 550 -844 
L 550 4863 
z
" transform="scale(0.015625)"/>
       <path id="DejaVuSans-6f" d="M 1959 3097 
Q 1497 3097 1228 2736 
Q 959 2375 959 1747 
Q 959 1119 1226 758 
Q 1494 397 1959 397 
Q 2419 397 2687 759 
Q 2956 1122 2956 1747 
Q 2956 2369 2687 2733 
Q 2419 3097 1959 3097 
z
M 1959 3584 
Q 2709 3584 3137 3096 
Q 3566 2609 3566 1747 
Q 3566 888 3137 398 
Q 2709 -91 1959 -91 
Q 1206 -91 779 398 
Q 353 888 353 1747 
Q 353 2609 779 3096 
Q 1206 3584 1959 3584 
z
" transform="scale(0.015625)"/>
       <path id="DejaVuSans-6c" d="M 603 4863 
L 1178 4863 
L 1178 0 
L 603 0 
L 603 4863 
z
" transform="scale(0.015625)"/>
       <path id="DejaVuSans-5d" d="M 1947 4863 
L 1947 -844 
L 622 -844 
L 622 -397 
L 1369 -397 
L 1369 4416 
L 622 4416 
L 622 4863 
L 1947 4863 
z
" transform="scale(0.015625)"/>
      </defs>
      <use xlink:href="#DejaVuSans-43" transform="translate(0 0.765625)"/>
      <use xlink:href="#DejaVuSans-41" transform="translate(69.824219 0.765625)"/>
      <use xlink:href="#DejaVuSans-31" transform="translate(138.232422 0.765625)"/>
      <use xlink:href="#DejaVuSans-20" transform="translate(201.855469 0.765625)"/>
      <use xlink:href="#DejaVuSans-5b" transform="translate(233.642578 0.765625)"/>
      <use xlink:href="#DejaVuSans-6d" transform="translate(272.65625 0.765625)"/>
      <use xlink:href="#DejaVuSans-6f" transform="translate(370.068359 0.765625)"/>
      <use xlink:href="#DejaVuSans-6c" transform="translate(431.25 0.765625)"/>
      <use xlink:href="#DejaVuSans-6d" transform="translate(459.033203 0.765625)"/>
      <use xlink:href="#DejaVuSans-2212" transform="translate(557.402344 39.046875) scale(0.7)"/>
      <use xlink:href="#DejaVuSans-33" transform="translate(616.054688 39.046875) scale(0.7)"/>
      <use xlink:href="#DejaVuSans-5d" transform="translate(663.325195 0.765625)"/>
     </g>
    </g>
   </g>
   <g id="line2d_31">
    <path d="M 89.818841 79.108335 
L 90.419133 73.94472 
L 91.019425 70.624422 
L 91.619717 68.497217 
L 92.220008 67.143234 
L 92.8203 66.287705 
L 93.420592 65.750931 
L 94.220981 65.335793 
L 95.221468 65.080757 
L 96.822246 64.932672 
L 100.624095 64.881106 
L 107.427403 64.878934 
L 108.027695 90.139125 
L 108.627986 103.848965 
L 109.228278 111.096563 
L 109.82857 114.957267 
L 110.428862 117.050591 
L 111.029154 118.209888 
L 111.629446 118.865867 
L 112.429835 119.332199 
L 113.430321 119.600712 
L 115.0311 119.752963 
L 118.832948 119.810002 
L 127.437132 119.813334 
L 127.837326 164.907433 
L 128.237521 180.205574 
L 128.437618 183.060807 
L 128.637716 184.187875 
L 128.837813 184.183133 
L 129.03791 183.434193 
L 129.438105 180.652209 
L 132.239467 157.182352 
L 133.239953 151.798298 
L 134.040343 148.587019 
L 134.840732 146.158161 
L 135.641121 144.346779 
L 136.44151 143.011289 
L 137.241899 142.035872 
L 138.242386 141.185496 
L 139.242872 140.622315 
L 140.443456 140.195296 
L 142.044234 139.879778 
L 144.445402 139.676517 
L 147.446861 139.597495 
L 147.847056 81.748803 
L 148.24725 58.126788 
L 148.647445 50.841595 
L 148.847542 50.067743 
L 149.047639 50.258829 
L 149.447834 52.044187 
L 150.648418 58.57461 
L 151.24871 60.760717 
L 151.849002 62.246117 
L 152.449293 63.220186 
L 153.049585 63.845418 
L 153.849974 64.337206 
L 154.850461 64.64406 
L 156.251142 64.813367 
L 159.252601 64.886858 
L 167.45659 64.893785 
L 167.656688 66.518275 
L 168.857271 96.948462 
L 169.257466 101.510859 
L 169.657661 104.053034 
L 170.057855 105.424755 
L 170.45805 106.151607 
L 170.858244 106.532277 
L 171.458536 106.788919 
L 172.459023 106.907794 
L 175.860677 106.92465 
L 187.46632 106.922519 
L 187.866514 181.918265 
L 188.266709 222.326733 
L 188.867001 257.70634 
L 189.467293 279.717609 
L 190.067584 294.91763 
L 190.867974 308.893443 
L 191.668363 318.299985 
L 192.468752 324.760097 
L 193.269141 329.259373 
L 194.06953 332.427588 
L 194.869919 334.678076 
L 195.670309 336.287578 
L 196.470698 337.444555 
L 197.471184 338.44902 
L 198.471671 339.119435 
L 199.672254 339.637873 
L 201.072936 339.998056 
L 203.073908 340.261278 
L 206.275465 340.413866 
L 207.476049 340.435382 
L 207.876243 242.87812 
L 208.276438 200.806436 
L 208.676633 179.033034 
L 209.276925 160.47542 
L 209.877216 149.638069 
L 210.477508 142.946305 
L 211.0778 138.746736 
L 211.678092 136.094135 
L 212.278384 134.413282 
L 212.878676 133.346458 
L 213.478968 132.668879 
L 214.279357 132.133239 
L 215.279843 131.791492 
L 216.680524 131.594418 
L 219.281789 131.505131 
L 227.485778 131.491455 
L 227.885973 108.89021 
L 228.286167 98.740863 
L 228.686362 93.528013 
L 229.286654 89.247773 
L 229.886946 86.756912 
L 230.487238 85.163143 
L 231.087529 84.119876 
L 231.687821 83.437632 
L 232.48821 82.884988 
L 233.488697 82.526013 
L 234.889378 82.317819 
L 237.490643 82.224932 
L 247.495507 82.211172 
L 247.895702 170.714072 
L 248.295897 220.443054 
L 248.896188 266.046314 
L 249.49648 295.482281 
L 250.096772 315.867312 
L 250.697064 330.360922 
L 251.297356 340.838776 
L 252.097745 350.619239 
L 252.898134 357.246548 
L 253.698523 361.832287 
L 254.498913 365.060507 
L 255.299302 367.364313 
L 256.099691 369.025832 
L 256.90008 370.233714 
L 257.900567 371.298287 
L 258.901053 372.022662 
L 260.101637 372.595961 
L 261.502318 373.006229 
L 263.303193 373.296751 
L 266.104556 373.490902 
L 267.505237 373.532727 
L 268.105528 270.553446 
L 268.70582 214.884156 
L 269.306112 181.289351 
L 269.906404 159.707632 
L 270.506696 145.438022 
L 271.106988 135.843181 
L 271.70728 129.308959 
L 272.307572 124.811189 
L 272.907864 121.687786 
L 273.508155 119.504061 
L 274.108447 117.970076 
L 274.908836 116.605167 
L 275.709226 115.747712 
L 276.509615 115.20907 
L 277.510101 114.808699 
L 278.910782 114.527791 
L 281.111853 114.369673 
L 286.114285 114.31574 
L 287.514966 114.314365 
L 288.915647 145.347779 
L 289.515939 152.297219 
L 290.116231 157.01187 
L 290.716523 160.308235 
L 291.316814 162.61983 
L 291.917106 164.227718 
L 292.517398 165.334875 
L 293.317787 166.283801 
L 294.118177 166.847129 
L 295.118663 167.237198 
L 296.519344 167.485063 
L 298.720414 167.605601 
L 305.123528 167.638828 
L 307.524695 167.639075 
L 307.92489 128.737906 
L 308.325084 114.680452 
L 308.725279 109.920084 
L 308.925376 109.039869 
L 309.125473 108.665359 
L 309.325571 108.594534 
L 309.725765 108.901482 
L 311.126446 110.516883 
L 311.926836 111.033069 
L 312.927322 111.362509 
L 314.328003 111.540355 
L 317.129365 111.611448 
L 327.534424 111.618522 
L 327.934619 142.189771 
L 328.334814 154.478957 
L 328.735008 159.909187 
L 329.135203 162.57602 
L 329.535397 164.057306 
L 330.135689 165.343962 
L 330.735981 166.133224 
L 331.53637 166.806568 
L 332.536857 167.297042 
L 333.73744 167.596368 
L 335.538316 167.772641 
L 339.140067 167.843107 
L 347.544154 167.849701 
L 347.944348 209.350432 
L 348.54464 243.106203 
L 349.144932 262.290489 
L 349.745224 274.702383 
L 350.345516 283.387458 
L 351.145905 291.560796 
L 351.946294 297.345664 
L 352.746683 301.622913 
L 353.547072 304.889546 
L 354.547559 308.002543 
L 355.548045 310.370877 
L 356.548532 312.221089 
L 357.749116 313.959605 
L 358.949699 315.324262 
L 360.35038 316.582492 
L 361.951159 317.708896 
L 363.752034 318.697438 
L 365.953105 319.627225 
L 367.553883 320.164439 
L 367.954077 193.813948 
L 368.354272 134.314428 
L 368.754467 107.685969 
L 369.154661 95.388846 
L 369.554856 89.445797 
L 369.95505 86.594354 
L 370.355245 85.374171 
L 370.75544 85.031663 
L 371.155634 85.139884 
L 371.956023 85.829844 
L 372.95651 86.677889 
L 373.956996 87.217665 
L 375.15758 87.547756 
L 376.758358 87.716066 
L 380.160012 87.7822 
L 387.563612 87.787154 
L 387.963807 109.100345 
L 388.364001 116.555643 
L 388.764196 119.926095 
L 389.364488 122.864349 
L 390.164877 125.519495 
L 390.965266 127.305871 
L 391.765655 128.435167 
L 392.566044 129.117401 
L 393.366434 129.520212 
L 394.567017 129.8334 
L 396.367893 130.009419 
L 400.169742 130.077589 
L 407.573341 130.083067 
L 408.173633 156.13224 
L 408.573828 166.969037 
L 408.974022 173.2705 
L 409.374217 176.731529 
L 409.774412 178.571488 
L 410.174606 179.523262 
L 410.574801 179.997336 
L 411.175093 180.271214 
L 411.975482 180.309833 
L 419.579179 179.923645 
L 427.583071 179.912388 
L 427.983265 182.105542 
L 428.38346 184.581547 
L 428.983752 191.449412 
L 430.384433 209.336934 
L 430.984725 214.583452 
L 431.585016 218.344879 
L 432.185308 220.969762 
L 432.7856 222.77751 
L 433.385892 224.014836 
L 433.986184 224.859504 
L 434.786573 225.583593 
L 435.586962 226.018314 
L 436.587449 226.326422 
L 438.188227 226.547504 
L 440.989589 226.650824 
L 447.5928 226.669129 
L 447.992994 173.600476 
L 448.593286 126.687409 
L 449.193578 100.872172 
L 449.79387 86.416 
L 450.394162 78.244304 
L 450.994454 73.56087 
L 451.594746 70.828207 
L 452.195038 69.203403 
L 452.795329 68.220623 
L 453.395621 67.61781 
L 454.19601 67.153961 
L 455.196497 66.86432 
L 456.797275 66.687572 
L 460.198929 66.619559 
L 467.602529 66.614353 
L 468.202821 192.025457 
L 468.803113 262.502026 
L 469.403405 299.991349 
L 470.003697 321.413118 
L 470.603988 334.778719 
L 471.20428 343.740178 
L 471.804572 350.068905 
L 472.604961 355.970391 
L 473.405351 360.028394 
L 474.20574 362.896955 
L 475.006129 364.963064 
L 475.806518 366.471051 
L 476.606907 367.582362 
L 477.607394 368.578209 
L 478.60788 369.269596 
L 479.808464 369.829743 
L 481.209145 370.242583 
L 483.210118 370.56962 
L 486.01148 370.76968 
L 487.612258 370.820384 
L 488.012453 307.440727 
L 488.412647 272.756587 
L 488.812842 252.144821 
L 489.413134 233.691826 
L 490.013426 222.670606 
L 490.613718 215.588012 
L 491.21401 210.869601 
L 491.814301 207.671181 
L 492.414593 205.485346 
L 493.014885 203.986126 
L 493.615177 202.956445 
L 494.415566 202.066458 
L 495.215955 201.527267 
L 496.216442 201.141937 
L 497.617123 200.884538 
L 499.818193 200.748876 
L 505.420917 200.706803 
L 507.621988 200.706302 
L 508.022182 141.877827 
L 508.222279 132.905012 
L 508.422377 129.978918 
L 508.622474 129.980765 
L 509.022669 132.928097 
L 509.823058 138.904418 
L 510.42335 141.591419 
L 511.023642 143.197836 
L 511.623933 144.147108 
L 512.224225 144.706746 
L 513.024614 145.113247 
L 514.025101 145.346216 
L 515.825977 145.477816 
L 521.028506 145.511555 
L 527.631717 145.511875 
L 528.031911 195.280993 
L 528.432106 208.531916 
L 528.632203 210.080708 
L 528.832301 209.890588 
L 529.232495 206.585972 
L 530.032884 195.760425 
L 531.233468 180.256623 
L 532.033857 172.552541 
L 532.834246 166.879694 
L 533.634636 162.820469 
L 534.435025 159.956609 
L 535.235414 157.945905 
L 536.035803 156.532264 
L 536.836192 155.532932 
L 537.836679 154.676749 
L 538.837165 154.108071 
L 540.037749 153.664159 
L 541.638527 153.312625 
L 543.839598 153.06555 
L 547.441349 152.910249 
L 547.641446 152.905941 
L 548.041641 183.818612 
L 548.441835 201.581497 
L 549.042127 217.095121 
L 549.642419 226.804361 
L 550.442808 235.970828 
L 551.243197 242.891024 
L 552.243684 249.493653 
L 553.24417 254.397959 
L 554.244657 258.017922 
L 555.245143 260.673593 
L 556.24563 262.613475 
L 557.246116 264.026355 
L 558.246603 265.053259 
L 559.447186 265.920827 
L 560.64777 266.510231 
L 562.048451 266.96285 
L 563.849327 267.310942 
L 566.450592 267.560168 
L 567.651175 267.620498 
L 568.05137 151.864422 
L 568.451564 106.142118 
L 568.651662 99.604821 
L 568.851759 98.455389 
L 569.051856 99.994402 
L 570.052343 111.993257 
L 570.452537 114.576565 
L 570.852732 116.143575 
L 571.252927 117.072874 
L 571.853218 117.803572 
L 572.45351 118.137216 
L 573.453997 118.348359 
L 575.45497 118.433637 
L 586.660418 118.446085 
L 587.660905 118.446085 
L 588.061099 201.843551 
L 588.461294 239.488004 
L 589.061586 269.096777 
L 589.661877 286.277184 
L 590.262169 297.486139 
L 590.862461 305.094423 
L 591.462753 310.338834 
L 592.063045 313.984879 
L 592.663337 316.53607 
L 593.263629 318.330906 
L 593.863921 319.599464 
L 594.66431 320.737591 
L 595.464699 321.461661 
L 596.465185 322.010967 
L 597.665769 322.370446 
L 599.266548 322.594016 
L 602.06791 322.715809 
L 607.670634 322.739361 
L 608.070828 234.930618 
L 608.471023 193.743611 
L 609.071315 159.995753 
L 609.671607 139.058911 
L 610.271899 124.696471 
L 610.87219 114.657728 
L 611.472482 107.672126 
L 612.072774 102.862648 
L 612.673066 99.589875 
L 613.273358 97.387079 
L 613.87365 95.918766 
L 614.473942 94.94814 
L 615.074234 94.311017 
L 615.874623 93.792013 
L 616.875109 93.450838 
L 618.27579 93.248469 
L 620.877055 93.15427 
L 627.680363 93.139523 
L 627.88046 95.624088 
L 629.481239 146.673057 
L 630.081531 155.640779 
L 630.681822 161.276353 
L 631.282114 164.808967 
L 631.882406 167.017244 
L 632.482698 168.395797 
L 633.08299 169.256286 
L 633.683282 169.793708 
L 634.483671 170.210864 
L 635.484157 170.471316 
L 637.084936 170.628458 
L 640.686687 170.687767 
L 647.690092 170.691238 
L 648.090287 200.375317 
L 648.490481 208.851241 
L 648.890676 212.797956 
L 649.490968 216.666222 
L 650.09126 219.45259 
L 650.691552 221.435752 
L 651.291844 222.802487 
L 651.892135 223.728931 
L 652.692525 224.512848 
L 653.492914 224.976957 
L 654.4934 225.30238 
L 655.894081 225.516428 
L 658.495346 225.636242 
L 666.499238 225.662587 
L 667.699822 225.662469 
L 668.100016 165.307762 
L 668.500211 146.529454 
L 668.900405 140.874334 
L 669.3006 138.907347 
L 669.700794 138.025798 
L 670.301086 137.352375 
L 671.101476 136.910672 
L 672.101962 136.665098 
L 673.70274 136.533455 
L 678.104881 136.48994 
L 679.705659 136.489242 
L 679.705659 136.489242 
" clip-path="url(#p9435d1aff9)" style="fill: none; stroke: #1f77b4; stroke-width: 2; stroke-linecap: square"/>
   </g>
   <g id="line2d_32">
    <path d="M 89.818841 75.988358 
L 90.419133 70.895947 
L 91.019425 67.514983 
L 91.619717 65.25718 
L 92.220008 63.73643 
L 92.8203 62.714165 
L 93.420592 62.036748 
L 94.220981 61.49945 
L 95.021371 61.238746 
L 96.021857 61.151159 
L 97.422538 61.27672 
L 100.423997 61.872616 
L 105.42643 62.794993 
L 107.6275 63.132756 
L 107.827597 77.188547 
L 109.028181 106.043805 
L 109.628473 114.051384 
L 110.228765 119.668446 
L 110.829057 123.571516 
L 111.429348 126.233725 
L 112.02964 128.005911 
L 112.629932 129.152813 
L 113.230224 129.862226 
L 113.830516 130.267604 
L 114.630905 130.495692 
L 115.631392 130.474296 
L 117.032073 130.153142 
L 120.233629 129.071613 
L 124.235575 127.813876 
L 127.637229 126.947756 
L 128.037424 163.479269 
L 128.637716 183.338371 
L 128.837813 184.177891 
L 129.03791 182.506502 
L 130.638689 162.305364 
L 131.23898 157.770854 
L 131.839272 154.572781 
L 132.439564 152.290428 
L 133.239953 150.187789 
L 134.040343 148.774625 
L 134.840732 147.789804 
L 135.841218 146.925763 
L 137.041802 146.201378 
L 138.64258 145.515533 
L 140.84365 144.826765 
L 144.045207 144.078056 
L 147.646958 143.443174 
L 148.047153 87.099598 
L 148.447348 70.407559 
L 148.647445 65.26354 
L 149.047639 61.983398 
L 149.247737 61.652562 
L 149.447834 61.692194 
L 149.848029 62.277836 
L 150.848515 63.956966 
L 151.648904 64.85769 
L 152.449293 65.443962 
L 153.44978 65.903361 
L 154.850461 66.2658 
L 156.851434 66.526231 
L 160.653282 66.755721 
L 167.656688 66.964743 
L 168.056882 99.144393 
L 168.25698 104.921883 
L 168.457077 104.508371 
L 168.657174 105.843934 
L 168.857271 105.795223 
L 169.257466 106.502826 
L 169.857758 106.694415 
L 171.058342 106.830157 
L 175.860677 107.045519 
L 186.465833 107.267263 
L 187.666417 107.282754 
L 188.066612 167.159115 
L 188.466806 219.578968 
L 189.267195 269.620578 
L 189.867487 291.665691 
L 190.467779 306.503855 
L 191.068071 316.920665 
L 191.86846 326.664015 
L 192.668849 333.510654 
L 193.469238 338.44713 
L 194.269628 342.038922 
L 195.070017 344.607589 
L 195.870406 346.521163 
L 196.870892 348.321415 
L 197.871379 349.64791 
L 198.871865 350.598363 
L 199.872352 351.187248 
L 201.273033 351.733856 
L 202.673714 352.033058 
L 204.274492 352.15547 
L 206.275465 352.079313 
L 207.676146 351.920627 
L 207.876243 251.91667 
L 208.276438 200.244044 
L 208.676633 174.606984 
L 209.076827 160.336684 
L 209.477022 151.79357 
L 210.077314 143.884205 
L 210.677606 138.986626 
L 211.277897 135.719872 
L 211.878189 133.491992 
L 212.478481 131.975125 
L 213.078773 130.952084 
L 213.679065 130.274447 
L 214.479454 129.735789 
L 215.279843 129.4737 
L 216.28033 129.387614 
L 217.681011 129.514292 
L 220.082178 129.999054 
L 226.685389 131.372601 
L 227.685875 131.542092 
L 228.08607 107.351942 
L 228.286167 96.447857 
L 228.686362 89.226855 
L 229.686848 82.531271 
L 230.28714 80.224988 
L 230.887432 78.700439 
L 231.487724 77.704539 
L 232.088016 77.070953 
L 232.888405 76.602128 
L 233.688794 76.413404 
L 234.689281 76.403927 
L 236.290059 76.639199 
L 247.495507 78.793882 
L 247.695605 78.820531 
L 248.095799 171.601955 
L 248.495994 230.257607 
L 249.096286 271.015043 
L 249.696578 298.660015 
L 250.296869 317.335405 
L 250.897161 330.306124 
L 251.497453 339.640759 
L 252.297842 348.33867 
L 253.098232 354.154112 
L 253.898621 358.196098 
L 254.899107 362.11159 
L 255.699496 364.557855 
L 256.499886 366.41429 
L 257.500372 368.11816 
L 258.500858 369.355126 
L 259.701442 370.459194 
L 260.902026 371.250637 
L 262.10261 371.775823 
L 263.303193 372.062756 
L 264.703875 372.134987 
L 266.304653 371.957903 
L 267.705334 371.667213 
L 268.305626 244.443503 
L 269.106015 197.797462 
L 269.906404 171.463237 
L 270.506696 158.65828 
L 271.106988 149.721599 
L 271.907377 141.28264 
L 272.707766 135.703672 
L 273.508155 131.964981 
L 274.308545 129.328638 
L 275.108934 127.381698 
L 276.10942 125.579489 
L 277.109907 124.239491 
L 278.31049 123.046272 
L 279.511074 122.170632 
L 280.911755 121.442789 
L 282.712631 120.788909 
L 284.713604 120.298264 
L 287.114771 119.943844 
L 287.715063 119.882202 
L 288.515452 141.358366 
L 288.71555 144.444017 
L 288.915647 145.077545 
L 289.515939 149.85171 
L 290.316328 154.520995 
L 290.91662 156.869692 
L 291.516912 158.503022 
L 292.117204 159.626576 
L 292.717495 160.390729 
L 293.517885 161.030765 
L 294.318274 161.390179 
L 295.31876 161.605864 
L 296.919539 161.67819 
L 299.920998 161.518185 
L 307.724792 161.028635 
L 308.124987 130.375285 
L 308.525182 118.914363 
L 308.925376 113.98642 
L 309.325571 112.020745 
L 309.725765 111.29763 
L 310.12596 111.003791 
L 310.726252 110.834484 
L 311.926836 110.779292 
L 313.927808 110.947156 
L 324.733062 112.139211 
L 327.734522 112.349126 
L 327.934619 110.011407 
L 328.134716 115.092557 
L 328.334814 116.405438 
L 328.534911 126.789108 
L 328.735008 130.142972 
L 329.135203 140.095502 
L 329.535397 145.580454 
L 330.135689 150.343514 
L 330.735981 153.366195 
L 331.336273 155.424217 
L 331.936565 156.827355 
L 332.536857 157.767823 
L 333.137149 158.38385 
L 333.937538 158.860056 
L 334.737927 159.080322 
L 335.938511 159.140032 
L 337.939484 158.961883 
L 344.542694 158.257104 
L 347.744251 158.057204 
L 348.144445 242.333698 
L 348.944835 290.763623 
L 349.345029 288.609182 
L 351.346002 261.303144 
L 352.146391 255.313551 
L 352.94678 251.108922 
L 353.74717 248.03572 
L 354.747656 245.182262 
L 355.748143 243.009275 
L 356.948726 240.947613 
L 358.349407 239.0039 
L 359.950186 237.166368 
L 361.751061 235.42972 
L 363.752034 233.802428 
L 365.953105 232.300289 
L 367.75398 231.25348 
L 367.954077 154.294219 
L 368.154175 124.238694 
L 368.554369 102.6315 
L 369.154661 92.565731 
L 369.554856 90.099577 
L 370.155148 88.278481 
L 370.75544 87.212438 
L 371.355731 86.514891 
L 372.156121 85.939587 
L 372.95651 85.622972 
L 374.157093 85.428675 
L 375.757872 85.434385 
L 378.759331 85.7254 
L 387.763709 86.744202 
L 387.963807 91.324662 
L 388.163904 87.218809 
L 388.364001 90.574331 
L 388.764196 99.59444 
L 389.16439 106.903669 
L 389.764682 112.893571 
L 390.364974 116.747752 
L 390.965266 119.44517 
L 391.565558 121.361221 
L 392.16585 122.721733 
L 392.966239 123.945054 
L 393.766628 124.72492 
L 394.767115 125.320186 
L 395.967698 125.712606 
L 397.568477 125.959928 
L 400.169742 126.088391 
L 405.372271 126.062451 
L 407.773439 126.016521 
L 408.173633 155.010354 
L 408.373731 160.782108 
L 408.573828 161.593665 
L 408.773925 165.043437 
L 408.974022 165.287298 
L 409.374217 167.46193 
L 409.774412 168.525942 
L 410.374703 169.411282 
L 411.175093 170.070334 
L 412.175579 170.559811 
L 413.57626 170.942197 
L 415.577233 171.218823 
L 419.379082 171.478708 
L 427.783168 171.795798 
L 427.983265 183.084009 
L 428.183362 179.617029 
L 428.583557 189.47665 
L 428.783654 187.009073 
L 429.984238 205.390867 
L 430.58453 212.405166 
L 431.184822 217.361305 
L 431.785114 220.797183 
L 432.385406 223.167679 
L 432.985697 224.790364 
L 433.585989 225.907416 
L 434.386379 226.873901 
L 435.186768 227.466268 
L 436.187254 227.923381 
L 437.788033 228.357265 
L 439.789005 228.631676 
L 443.790951 228.914364 
L 447.792897 229.130723 
L 447.992994 172.729452 
L 448.593286 114.045852 
L 448.993481 100.860091 
L 449.393675 91.53 
L 449.993967 82.869465 
L 450.594259 77.451885 
L 451.194551 73.987291 
L 451.794843 71.795779 
L 452.395135 70.458694 
L 452.995427 69.698665 
L 453.595719 69.333046 
L 454.19601 69.237503 
L 454.9964 69.385987 
L 455.996886 69.83002 
L 457.997859 71.032801 
L 461.399513 73.069627 
L 464.200875 74.462591 
L 467.002237 75.597391 
L 467.802626 75.877114 
L 468.202821 209.129451 
L 468.603016 262.393914 
L 469.00321 288.442047 
L 469.403405 308.366389 
L 470.003697 326.747373 
L 470.603988 338.192545 
L 471.20428 345.775965 
L 471.804572 350.854627 
L 472.404864 354.310929 
L 473.205253 357.470044 
L 473.805545 359.11307 
L 474.405837 360.265325 
L 475.206226 361.276496 
L 476.006615 361.903239 
L 476.807005 362.24138 
L 477.807491 362.376702 
L 479.008075 362.285704 
L 480.80895 361.883727 
L 484.010507 360.897735 
L 487.812356 359.658849 
L 488.21255 301.104496 
L 488.612745 267.253367 
L 489.012939 249.104917 
L 489.413134 235.282376 
L 490.013426 222.217895 
L 490.613718 213.506017 
L 491.21401 207.452562 
L 491.814301 203.173191 
L 492.414593 200.105767 
L 493.214983 197.28568 
L 494.015372 195.424271 
L 494.815761 194.175425 
L 495.61615 193.324887 
L 496.616636 192.617551 
L 497.81722 192.084617 
L 499.217901 191.712026 
L 501.218874 191.434306 
L 504.020236 191.303553 
L 507.822085 191.355441 
L 508.022182 151.940904 
L 508.222279 135.016903 
L 508.422377 133.024207 
L 508.622474 128.987358 
L 509.022669 126.626592 
L 509.222766 126.952684 
L 509.62296 128.504397 
L 510.623447 132.821602 
L 511.223739 134.602075 
L 511.824031 135.86137 
L 512.62442 136.97848 
L 513.424809 137.67586 
L 514.425296 138.192329 
L 515.625879 138.520783 
L 517.426755 138.735222 
L 520.828409 138.848088 
L 527.831814 138.893854 
L 528.031911 176.480641 
L 528.232009 189.928207 
L 528.432106 187.332171 
L 528.832301 229.595813 
L 529.032398 241.562958 
L 529.432592 238.152071 
L 531.233468 202.256704 
L 532.033857 193.171887 
L 532.834246 186.929112 
L 533.634636 182.461967 
L 534.435025 179.119972 
L 535.435511 175.937919 
L 536.435998 173.463522 
L 537.636581 171.094149 
L 539.037262 168.853908 
L 540.437944 167.006947 
L 542.038722 165.253898 
L 543.839598 163.614365 
L 545.84057 162.106842 
L 547.841543 160.8599 
L 548.041641 186.683471 
L 548.241738 192.180709 
L 548.441835 207.901161 
L 548.84203 217.747966 
L 549.442322 227.895686 
L 550.242711 236.378399 
L 551.0431 241.927397 
L 551.843489 245.621934 
L 552.643878 248.122478 
L 553.444268 249.862547 
L 554.244657 251.116359 
L 555.245143 252.255872 
L 556.445727 253.249 
L 557.846408 254.119455 
L 559.847381 255.077654 
L 562.448646 256.051197 
L 565.450105 256.936944 
L 567.851273 257.510206 
L 568.05137 164.014079 
L 568.451564 136.979734 
L 568.651662 126.493039 
L 568.851759 125.175948 
L 569.051856 122.737812 
L 569.251954 122.416558 
L 569.652148 122.41925 
L 570.052343 122.704708 
L 571.252927 123.719862 
L 572.653608 124.589231 
L 574.454483 125.429641 
L 576.855651 126.290827 
L 579.85711 127.120333 
L 583.458861 127.873035 
L 587.660905 128.515853 
L 587.861002 128.541468 
L 588.261196 175.607518 
L 588.661391 241.393042 
L 589.261683 279.204739 
L 589.861975 297.497706 
L 590.462267 308.473551 
L 591.062559 315.846216 
L 591.862948 322.508297 
L 592.663337 327.055538 
L 593.463726 330.106516 
L 594.264115 332.200659 
L 595.064504 333.665834 
L 595.864894 334.690587 
L 596.86538 335.622221 
L 598.065964 336.41191 
L 599.466645 337.033773 
L 601.067423 337.50223 
L 603.068396 337.842155 
L 605.269466 337.978684 
L 607.870731 337.957829 
L 608.070828 258.243754 
L 608.67112 180.612065 
L 609.471509 143.470106 
L 610.071801 127.819832 
L 610.672093 117.784191 
L 611.272385 110.952635 
L 611.872677 106.22833 
L 612.472969 102.973473 
L 613.073261 100.690133 
L 613.87365 98.606066 
L 614.674039 97.168463 
L 615.474428 96.123034 
L 616.474915 95.174576 
L 617.675498 94.360211 
L 619.076179 93.676287 
L 620.877055 93.073159 
L 623.078125 92.59618 
L 625.67939 92.270664 
L 627.88046 92.122286 
L 628.68085 141.639705 
L 629.081044 149.373618 
L 629.681336 157.846796 
L 630.281628 163.781798 
L 630.88192 167.716006 
L 631.482212 170.291689 
L 632.082503 171.936737 
L 632.682795 172.939399 
L 633.283087 173.499365 
L 633.883379 173.754858 
L 634.683768 173.78337 
L 635.684255 173.518636 
L 637.084936 172.873785 
L 644.488536 169.114195 
L 647.489995 167.973357 
L 647.89019 167.839593 
L 648.090287 171.899816 
L 648.290384 182.488956 
L 648.490481 185.762674 
L 648.690579 199.976518 
L 648.890676 202.126394 
L 649.090773 209.532917 
L 649.691065 215.987115 
L 650.291357 219.809966 
L 650.891649 222.354589 
L 651.491941 224.149318 
L 652.092233 225.410618 
L 652.892622 226.521853 
L 653.693011 227.20141 
L 654.4934 227.607444 
L 655.493887 227.879297 
L 656.894568 228.016072 
L 659.295735 227.980688 
L 667.899919 227.651974 
L 668.300113 155.678088 
L 668.700308 135.103955 
L 669.3006 125.764791 
L 669.700794 123.582604 
L 670.100989 122.299903 
L 670.701281 121.167821 
L 671.301573 120.497547 
L 671.901865 120.111408 
L 672.702254 119.883987 
L 673.70274 119.883582 
L 675.103421 120.158524 
L 677.704686 120.961826 
L 679.705659 121.617149 
L 679.705659 121.617149 
" clip-path="url(#p9435d1aff9)" style="fill: none; stroke-dasharray: 5.55,2.4; stroke-dashoffset: 0; stroke: #ff0000; stroke-width: 1.5"/>
   </g>
   <g id="line2d_33">
    <path d="M 89.818841 64.257523 
L 90.61923 57.889521 
L 91.219522 54.64792 
L 92.019911 51.678463 
L 92.8203 49.72089 
L 93.620689 48.397408 
L 94.421079 47.473373 
L 95.421565 46.663584 
L 96.622149 45.987458 
L 98.222927 45.350607 
L 100.624095 44.665036 
L 104.025749 43.952458 
L 107.6275 43.387273 
L 107.827597 71.789565 
L 108.427889 108.778482 
L 108.627986 105.341156 
L 108.828084 113.361057 
L 109.228278 116.929297 
L 110.028667 124.099882 
L 110.628959 127.669418 
L 111.229251 130.204183 
L 111.829543 132.017507 
L 112.629932 133.672681 
L 113.430321 134.759595 
L 114.230711 135.490792 
L 115.231197 136.100185 
L 116.431781 136.575396 
L 118.232656 137.028109 
L 121.034019 137.476356 
L 125.636256 137.964997 
L 127.637229 138.125718 
L 127.837326 176.44697 
L 128.237521 206.898691 
L 128.437618 188.81207 
L 128.637716 193.58817 
L 129.03791 187.946873 
L 129.238008 187.19022 
L 130.238494 180.444325 
L 130.838786 177.704471 
L 131.439078 175.776835 
L 132.03937 174.409058 
L 132.839759 173.1749 
L 133.640148 172.378677 
L 134.640634 171.754681 
L 135.841218 171.312896 
L 137.441997 170.981309 
L 140.243359 170.674815 
L 145.645986 170.35401 
L 147.646958 170.27006 
L 147.847056 109.885878 
L 148.24725 64.019783 
L 148.447348 65.997224 
L 148.647445 60.905905 
L 148.847542 61.428215 
L 149.047639 61.022785 
L 149.247737 60.117548 
L 149.647931 60.5027 
L 150.448321 61.632662 
L 151.24871 62.401528 
L 152.049099 62.864013 
L 153.049585 63.18238 
L 154.450266 63.37144 
L 156.851434 63.419343 
L 167.656688 63.179557 
L 167.856785 69.677695 
L 168.056882 72.396136 
L 168.25698 67.819013 
L 168.457077 82.129284 
L 168.657174 87.979089 
L 168.857271 84.392293 
L 169.057369 87.109422 
L 169.257466 87.536106 
L 169.857758 87.669034 
L 170.257952 87.749159 
L 173.859704 87.725911 
L 187.666417 87.583966 
L 187.866514 174.561855 
L 188.266709 247.08512 
L 188.666903 258.917995 
L 188.867001 271.585472 
L 189.267195 276.405156 
L 189.867487 284.891446 
L 190.667876 291.785584 
L 191.268168 295.307337 
L 192.068557 298.556905 
L 192.868947 300.721002 
L 193.669336 302.202887 
L 194.469725 303.253459 
L 195.470211 304.19224 
L 196.670795 304.995921 
L 198.271573 305.773383 
L 200.472644 306.568583 
L 203.474103 307.394147 
L 207.075854 308.148392 
L 207.676146 308.254882 
L 207.876243 246.277834 
L 208.476535 179.28415 
L 208.676633 184.88636 
L 208.87673 175.05642 
L 209.076827 173.383558 
L 209.477022 167.906404 
L 210.077314 162.019866 
L 210.677606 158.066244 
L 211.277897 155.260754 
L 211.878189 153.250359 
L 212.678578 151.409415 
L 213.478968 150.195152 
L 214.279357 149.373555 
L 215.279843 148.683475 
L 216.480427 148.13894 
L 218.281303 147.611948 
L 220.882567 147.112792 
L 225.084611 146.560589 
L 227.685875 146.304105 
L 227.885973 117.597514 
L 228.286167 96.457009 
L 228.486265 98.969513 
L 228.686362 85.057031 
L 229.086556 79.962783 
L 229.286654 80.190866 
L 229.686848 77.629809 
L 230.487238 74.916837 
L 231.287627 73.112597 
L 232.088016 71.909207 
L 232.888405 71.086581 
L 233.888891 70.385381 
L 235.089475 69.820972 
L 236.890351 69.260185 
L 239.491616 68.714595 
L 243.493562 68.125962 
L 247.695605 67.683797 
L 247.895702 177.155066 
L 248.295897 261.793626 
L 248.896188 314.055315 
L 249.296383 322.896556 
L 249.896675 335.556654 
L 250.697064 345.739209 
L 251.297356 350.916888 
L 251.897648 354.664531 
L 252.698037 358.146684 
L 253.498426 360.495245 
L 254.298815 362.129978 
L 255.099204 363.311516 
L 256.099691 364.392662 
L 257.300275 365.3447 
L 258.901053 366.293453 
L 260.902026 367.207276 
L 263.503291 368.146089 
L 266.704847 369.054338 
L 267.705334 369.295069 
L 267.905431 295.59533 
L 268.305626 243.863235 
L 268.905918 189.554376 
L 269.106015 182.950573 
L 269.306112 181.300758 
L 269.706307 173.523781 
L 270.306599 165.890937 
L 270.906891 160.460767 
L 271.507182 156.59681 
L 272.107474 153.816536 
L 272.907864 151.24841 
L 273.708253 149.531411 
L 274.508642 148.349301 
L 275.509128 147.332289 
L 276.709712 146.503141 
L 278.110393 145.824953 
L 280.111366 145.122887 
L 282.912728 144.392399 
L 286.514479 143.685148 
L 287.715063 143.490546 
L 288.115258 153.306595 
L 288.315355 148.344006 
L 288.515452 156.585026 
L 288.71555 173.688428 
L 288.915647 173.386457 
L 289.115744 176.867711 
L 289.315841 176.317833 
L 289.716036 178.466224 
L 290.316328 180.414994 
L 290.91662 181.77991 
L 291.717009 182.990248 
L 292.517398 183.754576 
L 293.517885 184.334836 
L 294.718468 184.722926 
L 296.319247 184.986168 
L 299.120609 185.18746 
L 305.923917 185.385415 
L 307.724792 185.418979 
L 307.92489 142.542707 
L 308.325084 111.065307 
L 308.725279 102.030293 
L 308.925376 101.755809 
L 309.325571 99.290777 
L 310.12596 98.402816 
L 310.926349 98.063373 
L 312.32703 97.727026 
L 314.5281 97.459259 
L 318.930241 97.205576 
L 327.734522 96.946006 
L 327.934619 139.034902 
L 328.534911 182.997629 
L 328.735008 172.793004 
L 328.935105 179.155365 
L 329.135203 178.838692 
L 329.3353 181.233933 
L 330.735981 186.746131 
L 331.53637 188.416202 
L 332.336759 189.503719 
L 333.137149 190.22592 
L 334.137635 190.816543 
L 335.338219 191.264421 
L 337.139094 191.674076 
L 339.940456 192.061152 
L 344.942889 192.499372 
L 347.744251 192.675765 
L 347.944348 225.276477 
L 348.344543 251.048808 
L 348.744737 238.545415 
L 348.944835 233.945438 
L 349.144932 232.023396 
L 349.345029 232.396347 
L 349.945321 227.432031 
L 350.74571 223.028461 
L 351.346002 220.76373 
L 351.946294 219.146456 
L 352.746683 217.675575 
L 353.547072 216.714516 
L 354.347462 216.072152 
L 355.347948 215.541589 
L 356.748629 215.08055 
L 358.749602 214.687285 
L 362.151256 214.27945 
L 367.75398 213.85238 
L 367.954077 145.563976 
L 368.354272 84.702191 
L 368.554369 82.661303 
L 368.754467 96.901252 
L 368.954564 90.255176 
L 369.154661 91.617304 
L 369.354758 88.534461 
L 369.554856 88.181479 
L 369.95505 86.754928 
L 370.555342 85.48319 
L 371.355731 84.352693 
L 372.156121 83.591583 
L 373.156607 82.95742 
L 374.357191 82.464098 
L 376.158066 81.996418 
L 378.959429 81.535697 
L 383.561666 81.035165 
L 387.763709 80.71664 
L 387.963807 110.910153 
L 388.364001 140.870535 
L 388.564099 140.092201 
L 388.764196 132.133118 
L 388.964293 138.808671 
L 389.16439 137.870844 
L 389.564585 140.34676 
L 389.96478 142.182645 
L 390.765169 144.587294 
L 391.565558 146.139411 
L 392.365947 147.143413 
L 393.166336 147.80326 
L 394.166823 148.334649 
L 395.567504 148.777129 
L 397.568477 149.130484 
L 400.970131 149.470236 
L 407.173147 149.840778 
L 407.773439 149.867758 
L 407.973536 168.271142 
L 408.173633 176.065518 
L 408.373731 175.589305 
L 408.773925 197.367817 
L 408.974022 194.626964 
L 409.17412 197.581077 
L 410.174606 198.757802 
L 410.974995 199.12871 
L 412.375676 199.500953 
L 414.576747 199.800557 
L 418.578692 200.072411 
L 426.582584 200.364813 
L 427.783168 200.395015 
L 428.38346 214.576245 
L 428.583557 215.407682 
L 428.783654 212.712814 
L 428.983752 221.722212 
L 429.183849 221.825635 
L 429.383946 222.698312 
L 429.984238 228.199168 
L 430.784627 233.033675 
L 431.384919 235.53383 
L 432.185308 237.824323 
L 432.985697 239.331769 
L 433.786087 240.348492 
L 434.786573 241.199346 
L 435.987157 241.866797 
L 437.587935 242.44939 
L 439.789005 242.990241 
L 443.190659 243.578821 
L 447.792897 244.143104 
L 447.992994 194.317619 
L 448.393189 159.296996 
L 448.993481 125.151446 
L 449.193578 120.958079 
L 449.393675 119.794521 
L 449.79387 115.050128 
L 450.394162 110.38885 
L 450.994454 107.083314 
L 451.594746 104.726336 
L 452.395135 102.567728 
L 453.195524 101.141535 
L 453.995913 100.174698 
L 454.9964 99.360039 
L 456.196983 98.714876 
L 457.797762 98.144463 
L 460.198929 97.567449 
L 463.800681 96.961571 
L 467.802626 96.474096 
L 468.002724 187.239985 
L 468.402918 249.115276 
L 468.803113 301.016374 
L 469.403405 317.576471 
L 470.003697 327.027 
L 470.603988 332.964414 
L 471.20428 337.191608 
L 471.804572 340.225897 
L 472.604961 343.024746 
L 473.405351 344.893871 
L 474.20574 346.178141 
L 475.006129 347.092856 
L 476.006615 347.914589 
L 477.207199 348.622874 
L 478.807977 349.312969 
L 481.209145 350.079085 
L 484.410702 350.847836 
L 487.812356 351.471808 
L 488.012453 307.614022 
L 488.612745 258.052332 
L 489.012939 245.880927 
L 489.413134 240.019674 
L 490.013426 234.45229 
L 490.613718 230.808146 
L 491.21401 228.222466 
L 491.814301 226.38313 
L 492.614691 224.709158 
L 493.41508 223.614336 
L 494.215469 222.881917 
L 495.215955 222.27621 
L 496.416539 221.809178 
L 498.217415 221.371389 
L 501.018777 220.945695 
L 505.621015 220.486771 
L 507.822085 220.322381 
L 508.022182 162.297458 
L 508.422377 113.512716 
L 508.622474 126.959018 
L 508.822571 127.841742 
L 509.022669 127.427832 
L 509.222766 129.446348 
L 509.422863 128.839484 
L 510.42335 132.380267 
L 511.023642 133.887047 
L 511.824031 135.208393 
L 512.62442 136.02565 
L 513.424809 136.531099 
L 514.425296 136.900659 
L 515.825977 137.155103 
L 518.027047 137.294318 
L 523.429674 137.335357 
L 527.831814 137.33214 
L 528.031911 193.260934 
L 528.432106 243.080446 
L 528.832301 208.204789 
L 529.232495 199.038695 
L 529.432592 199.964097 
L 530.032884 192.129794 
L 530.833273 185.248537 
L 531.433565 181.713539 
L 532.033857 179.182835 
L 532.834246 176.869512 
L 533.634636 175.346137 
L 534.435025 174.317071 
L 535.435511 173.454389 
L 536.636095 172.775668 
L 538.236873 172.181254 
L 540.437944 171.62731 
L 543.839598 171.023022 
L 547.841543 170.507563 
L 548.041641 198.957075 
L 548.441835 221.581123 
L 548.641933 217.424594 
L 548.84203 228.027465 
L 549.042127 232.180242 
L 549.242224 233.174514 
L 549.442322 233.075002 
L 549.842516 235.466865 
L 550.642905 237.983698 
L 551.443295 239.632105 
L 552.243684 240.69814 
L 553.044073 241.396574 
L 554.044559 241.956766 
L 555.245143 242.368648 
L 557.046019 242.728052 
L 560.047478 243.065091 
L 565.450105 243.426838 
L 567.851273 243.541908 
L 568.05137 154.946926 
L 568.451564 78.393606 
L 568.651662 98.584319 
L 568.851759 95.742511 
L 569.051856 89.515016 
L 569.251954 91.782423 
L 569.652148 90.323714 
L 569.852246 90.015107 
L 570.25244 90.218021 
L 571.252927 90.263227 
L 573.2539 90.188077 
L 587.861002 89.143782 
L 588.061099 185.539345 
L 588.461294 265.665429 
L 588.661391 264.862562 
L 589.061586 289.042457 
L 589.46178 293.134854 
L 589.861975 299.377263 
L 590.462267 305.185757 
L 591.062559 309.429829 
L 591.66285 312.482034 
L 592.46324 315.307217 
L 593.263629 317.204239 
L 594.064018 318.516754 
L 595.064504 319.653496 
L 596.064991 320.45493 
L 597.465672 321.264026 
L 599.266548 322.023961 
L 601.867812 322.849556 
L 605.069369 323.627029 
L 607.870731 324.162595 
L 608.070828 253.136837 
L 608.67112 173.419592 
L 608.871218 168.498905 
L 609.071315 154.482148 
L 609.871704 138.55481 
L 610.471996 129.915587 
L 611.072288 123.765692 
L 611.67258 119.389364 
L 612.272872 116.238168 
L 613.073261 113.32745 
L 613.87365 111.381806 
L 614.674039 110.042422 
L 615.474428 109.086722 
L 616.474915 108.226039 
L 617.675498 107.482111 
L 619.276277 106.754986 
L 621.677444 105.945816 
L 624.879001 105.132585 
L 627.88046 104.541181 
L 628.280655 117.718556 
L 628.480752 114.668534 
L 628.880947 147.715683 
L 629.481239 157.017393 
L 630.081531 163.250669 
L 630.88192 168.550977 
L 631.482212 171.213336 
L 632.082503 173.108063 
L 632.882893 174.826251 
L 633.683282 175.943846 
L 634.483671 176.686112 
L 635.484157 177.293733 
L 636.684741 177.754749 
L 638.485617 178.17753 
L 641.286979 178.577693 
L 646.089314 179.016976 
L 647.89019 179.140803 
L 648.090287 212.462756 
L 648.290384 226.080113 
L 648.490481 248.883142 
L 648.890676 226.992781 
L 649.090773 235.300557 
L 649.290871 232.563958 
L 649.691065 234.52283 
L 650.09126 235.919575 
L 651.091746 238.12427 
L 651.892135 239.253846 
L 652.692525 240.014856 
L 653.693011 240.649455 
L 654.893595 241.14434 
L 656.69447 241.615807 
L 659.495833 242.082749 
L 663.897973 242.57347 
L 667.899919 242.889266 
L 668.100016 186.019075 
L 668.500211 136.462446 
L 668.700308 145.764135 
L 668.900405 144.416124 
L 669.100503 138.586082 
L 669.3006 139.513886 
L 669.900892 136.943503 
L 670.901378 135.213484 
L 671.701767 134.339781 
L 672.702254 133.640974 
L 673.902838 133.134092 
L 675.503616 132.738828 
L 678.104881 132.373308 
L 679.705659 132.217551 
L 679.705659 132.217551 
" clip-path="url(#p9435d1aff9)" style="fill: none; stroke-dasharray: 1.5,2.475; stroke-dashoffset: 0; stroke: #ff0000; stroke-width: 1.5"/>
   </g>
   <g id="patch_3">
    <path d="M 60.3245 390.04 
L 60.3245 26.88 
" style="fill: none; stroke: #000000; stroke-width: 0.8; stroke-linejoin: miter; stroke-linecap: square"/>
   </g>
   <g id="patch_4">
    <path d="M 709.2 390.04 
L 709.2 26.88 
" style="fill: none; stroke: #000000; stroke-width: 0.8; stroke-linejoin: miter; stroke-linecap: square"/>
   </g>
   <g id="patch_5">
    <path d="M 60.3245 390.04 
L 709.2 390.04 
" style="fill: none; stroke: #000000; stroke-width: 0.8; stroke-linejoin: miter; stroke-linecap: square"/>
   </g>
   <g id="patch_6">
    <path d="M 60.3245 26.88 
L 709.2 26.88 
" style="fill: none; stroke: #000000; stroke-width: 0.8; stroke-linejoin: miter; stroke-linecap: square"/>
   </g>
   <g id="text_18">
    <!-- Trajectory CA1 -->
    <g transform="translate(341.121625 20.88) scale(0.12 -0.12)">
     <defs>
      <path id="DejaVuSans-72" d="M 2631 2963 
Q 2534 3019 2420 3045 
Q 2306 3072 2169 3072 
Q 1681 3072 1420 2755 
Q 1159 2438 1159 1844 
L 1159 0 
L 581 0 
L 581 3500 
L 1159 3500 
L 1159 2956 
Q 1341 3275 1631 3429 
Q 1922 3584 2338 3584 
Q 2397 3584 2469 3576 
Q 2541 3569 2628 3553 
L 2631 2963 
z
" transform="scale(0.015625)"/>
      <path id="DejaVuSans-61" d="M 2194 1759 
Q 1497 1759 1228 1600 
Q 959 1441 959 1056 
Q 959 750 1161 570 
Q 1363 391 1709 391 
Q 2188 391 2477 730 
Q 2766 1069 2766 1631 
L 2766 1759 
L 2194 1759 
z
M 3341 1997 
L 3341 0 
L 2766 0 
L 2766 531 
Q 2569 213 2275 61 
Q 1981 -91 1556 -91 
Q 1019 -91 701 211 
Q 384 513 384 1019 
Q 384 1609 779 1909 
Q 1175 2209 1959 2209 
L 2766 2209 
L 2766 2266 
Q 2766 2663 2505 2880 
Q 2244 3097 1772 3097 
Q 1472 3097 1187 3025 
Q 903 2953 641 2809 
L 641 3341 
Q 956 3463 1253 3523 
Q 1550 3584 1831 3584 
Q 2591 3584 2966 3190 
Q 3341 2797 3341 1997 
z
" transform="scale(0.015625)"/>
      <path id="DejaVuSans-6a" d="M 603 3500 
L 1178 3500 
L 1178 -63 
Q 1178 -731 923 -1031 
Q 669 -1331 103 -1331 
L -116 -1331 
L -116 -844 
L 38 -844 
Q 366 -844 484 -692 
Q 603 -541 603 -63 
L 603 3500 
z
M 603 4863 
L 1178 4863 
L 1178 4134 
L 603 4134 
L 603 4863 
z
" transform="scale(0.015625)"/>
      <path id="DejaVuSans-63" d="M 3122 3366 
L 3122 2828 
Q 2878 2963 2633 3030 
Q 2388 3097 2138 3097 
Q 1578 3097 1268 2742 
Q 959 2388 959 1747 
Q 959 1106 1268 751 
Q 1578 397 2138 397 
Q 2388 397 2633 464 
Q 2878 531 3122 666 
L 3122 134 
Q 2881 22 2623 -34 
Q 2366 -91 2075 -91 
Q 1284 -91 818 406 
Q 353 903 353 1747 
Q 353 2603 823 3093 
Q 1294 3584 2113 3584 
Q 2378 3584 2631 3529 
Q 2884 3475 3122 3366 
z
" transform="scale(0.015625)"/>
      <path id="DejaVuSans-79" d="M 2059 -325 
Q 1816 -950 1584 -1140 
Q 1353 -1331 966 -1331 
L 506 -1331 
L 506 -850 
L 844 -850 
Q 1081 -850 1212 -737 
Q 1344 -625 1503 -206 
L 1606 56 
L 191 3500 
L 800 3500 
L 1894 763 
L 2988 3500 
L 3597 3500 
L 2059 -325 
z
" transform="scale(0.015625)"/>
     </defs>
     <use xlink:href="#DejaVuSans-54"/>
     <use xlink:href="#DejaVuSans-72" transform="translate(46.333984 0)"/>
     <use xlink:href="#DejaVuSans-61" transform="translate(87.447266 0)"/>
     <use xlink:href="#DejaVuSans-6a" transform="translate(148.726562 0)"/>
     <use xlink:href="#DejaVuSans-65" transform="translate(176.509766 0)"/>
     <use xlink:href="#DejaVuSans-63" transform="translate(238.033203 0)"/>
     <use xlink:href="#DejaVuSans-74" transform="translate(293.013672 0)"/>
     <use xlink:href="#DejaVuSans-6f" transform="translate(332.222656 0)"/>
     <use xlink:href="#DejaVuSans-72" transform="translate(393.404297 0)"/>
     <use xlink:href="#DejaVuSans-79" transform="translate(434.517578 0)"/>
     <use xlink:href="#DejaVuSans-20" transform="translate(493.697266 0)"/>
     <use xlink:href="#DejaVuSans-43" transform="translate(525.484375 0)"/>
     <use xlink:href="#DejaVuSans-41" transform="translate(595.308594 0)"/>
     <use xlink:href="#DejaVuSans-31" transform="translate(663.716797 0)"/>
    </g>
   </g>
   <g id="legend_1">
    <g id="patch_7">
     <path d="M 586.876563 78.914375 
L 702.2 78.914375 
Q 704.2 78.914375 704.2 76.914375 
L 704.2 33.88 
Q 704.2 31.88 702.2 31.88 
L 586.876563 31.88 
Q 584.876563 31.88 584.876563 33.88 
L 584.876563 76.914375 
Q 584.876563 78.914375 586.876563 78.914375 
z
" style="fill: #ffffff; opacity: 0.8; stroke: #cccccc; stroke-linejoin: miter"/>
    </g>
    <g id="line2d_34">
     <path d="M 588.876563 39.978437 
L 598.876563 39.978437 
L 608.876563 39.978437 
" style="fill: none; stroke: #1f77b4; stroke-width: 2; stroke-linecap: square"/>
    </g>
    <g id="text_19">
     <!-- True Trajectory 1 -->
     <g transform="translate(616.876563 43.478437) scale(0.1 -0.1)">
      <defs>
       <path id="DejaVuSans-75" d="M 544 1381 
L 544 3500 
L 1119 3500 
L 1119 1403 
Q 1119 906 1312 657 
Q 1506 409 1894 409 
Q 2359 409 2629 706 
Q 2900 1003 2900 1516 
L 2900 3500 
L 3475 3500 
L 3475 0 
L 2900 0 
L 2900 538 
Q 2691 219 2414 64 
Q 2138 -91 1772 -91 
Q 1169 -91 856 284 
Q 544 659 544 1381 
z
M 1991 3584 
L 1991 3584 
z
" transform="scale(0.015625)"/>
      </defs>
      <use xlink:href="#DejaVuSans-54"/>
      <use xlink:href="#DejaVuSans-72" transform="translate(46.333984 0)"/>
      <use xlink:href="#DejaVuSans-75" transform="translate(87.447266 0)"/>
      <use xlink:href="#DejaVuSans-65" transform="translate(150.826172 0)"/>
      <use xlink:href="#DejaVuSans-20" transform="translate(212.349609 0)"/>
      <use xlink:href="#DejaVuSans-54" transform="translate(244.136719 0)"/>
      <use xlink:href="#DejaVuSans-72" transform="translate(290.470703 0)"/>
      <use xlink:href="#DejaVuSans-61" transform="translate(331.583984 0)"/>
      <use xlink:href="#DejaVuSans-6a" transform="translate(392.863281 0)"/>
      <use xlink:href="#DejaVuSans-65" transform="translate(420.646484 0)"/>
      <use xlink:href="#DejaVuSans-63" transform="translate(482.169922 0)"/>
      <use xlink:href="#DejaVuSans-74" transform="translate(537.150391 0)"/>
      <use xlink:href="#DejaVuSans-6f" transform="translate(576.359375 0)"/>
      <use xlink:href="#DejaVuSans-72" transform="translate(637.541016 0)"/>
      <use xlink:href="#DejaVuSans-79" transform="translate(678.654297 0)"/>
      <use xlink:href="#DejaVuSans-20" transform="translate(737.833984 0)"/>
      <use xlink:href="#DejaVuSans-31" transform="translate(769.621094 0)"/>
     </g>
    </g>
    <g id="line2d_35">
     <path d="M 588.876563 54.656563 
L 598.876563 54.656563 
L 608.876563 54.656563 
" style="fill: none; stroke-dasharray: 5.55,2.4; stroke-dashoffset: 0; stroke: #ff0000; stroke-width: 1.5"/>
    </g>
    <g id="text_20">
     <!-- Predicted (NN) 1 -->
     <g transform="translate(616.876563 58.156563) scale(0.1 -0.1)">
      <defs>
       <path id="DejaVuSans-50" d="M 1259 4147 
L 1259 2394 
L 2053 2394 
Q 2494 2394 2734 2622 
Q 2975 2850 2975 3272 
Q 2975 3691 2734 3919 
Q 2494 4147 2053 4147 
L 1259 4147 
z
M 628 4666 
L 2053 4666 
Q 2838 4666 3239 4311 
Q 3641 3956 3641 3272 
Q 3641 2581 3239 2228 
Q 2838 1875 2053 1875 
L 1259 1875 
L 1259 0 
L 628 0 
L 628 4666 
z
" transform="scale(0.015625)"/>
       <path id="DejaVuSans-64" d="M 2906 2969 
L 2906 4863 
L 3481 4863 
L 3481 0 
L 2906 0 
L 2906 525 
Q 2725 213 2448 61 
Q 2172 -91 1784 -91 
Q 1150 -91 751 415 
Q 353 922 353 1747 
Q 353 2572 751 3078 
Q 1150 3584 1784 3584 
Q 2172 3584 2448 3432 
Q 2725 3281 2906 2969 
z
M 947 1747 
Q 947 1113 1208 752 
Q 1469 391 1925 391 
Q 2381 391 2643 752 
Q 2906 1113 2906 1747 
Q 2906 2381 2643 2742 
Q 2381 3103 1925 3103 
Q 1469 3103 1208 2742 
Q 947 2381 947 1747 
z
" transform="scale(0.015625)"/>
       <path id="DejaVuSans-28" d="M 1984 4856 
Q 1566 4138 1362 3434 
Q 1159 2731 1159 2009 
Q 1159 1288 1364 580 
Q 1569 -128 1984 -844 
L 1484 -844 
Q 1016 -109 783 600 
Q 550 1309 550 2009 
Q 550 2706 781 3412 
Q 1013 4119 1484 4856 
L 1984 4856 
z
" transform="scale(0.015625)"/>
       <path id="DejaVuSans-4e" d="M 628 4666 
L 1478 4666 
L 3547 763 
L 3547 4666 
L 4159 4666 
L 4159 0 
L 3309 0 
L 1241 3903 
L 1241 0 
L 628 0 
L 628 4666 
z
" transform="scale(0.015625)"/>
       <path id="DejaVuSans-29" d="M 513 4856 
L 1013 4856 
Q 1481 4119 1714 3412 
Q 1947 2706 1947 2009 
Q 1947 1309 1714 600 
Q 1481 -109 1013 -844 
L 513 -844 
Q 928 -128 1133 580 
Q 1338 1288 1338 2009 
Q 1338 2731 1133 3434 
Q 928 4138 513 4856 
z
" transform="scale(0.015625)"/>
      </defs>
      <use xlink:href="#DejaVuSans-50"/>
      <use xlink:href="#DejaVuSans-72" transform="translate(58.552734 0)"/>
      <use xlink:href="#DejaVuSans-65" transform="translate(97.416016 0)"/>
      <use xlink:href="#DejaVuSans-64" transform="translate(158.939453 0)"/>
      <use xlink:href="#DejaVuSans-69" transform="translate(222.416016 0)"/>
      <use xlink:href="#DejaVuSans-63" transform="translate(250.199219 0)"/>
      <use xlink:href="#DejaVuSans-74" transform="translate(305.179688 0)"/>
      <use xlink:href="#DejaVuSans-65" transform="translate(344.388672 0)"/>
      <use xlink:href="#DejaVuSans-64" transform="translate(405.912109 0)"/>
      <use xlink:href="#DejaVuSans-20" transform="translate(469.388672 0)"/>
      <use xlink:href="#DejaVuSans-28" transform="translate(501.175781 0)"/>
      <use xlink:href="#DejaVuSans-4e" transform="translate(540.189453 0)"/>
      <use xlink:href="#DejaVuSans-4e" transform="translate(614.994141 0)"/>
      <use xlink:href="#DejaVuSans-29" transform="translate(689.798828 0)"/>
      <use xlink:href="#DejaVuSans-20" transform="translate(728.8125 0)"/>
      <use xlink:href="#DejaVuSans-31" transform="translate(760.599609 0)"/>
     </g>
    </g>
    <g id="line2d_36">
     <path d="M 588.876563 69.334687 
L 598.876563 69.334687 
L 608.876563 69.334687 
" style="fill: none; stroke-dasharray: 1.5,2.475; stroke-dashoffset: 0; stroke: #ff0000; stroke-width: 1.5"/>
    </g>
    <g id="text_21">
     <!-- Predicted (C) 1 -->
     <g transform="translate(616.876563 72.834687) scale(0.1 -0.1)">
      <use xlink:href="#DejaVuSans-50"/>
      <use xlink:href="#DejaVuSans-72" transform="translate(58.552734 0)"/>
      <use xlink:href="#DejaVuSans-65" transform="translate(97.416016 0)"/>
      <use xlink:href="#DejaVuSans-64" transform="translate(158.939453 0)"/>
      <use xlink:href="#DejaVuSans-69" transform="translate(222.416016 0)"/>
      <use xlink:href="#DejaVuSans-63" transform="translate(250.199219 0)"/>
      <use xlink:href="#DejaVuSans-74" transform="translate(305.179688 0)"/>
      <use xlink:href="#DejaVuSans-65" transform="translate(344.388672 0)"/>
      <use xlink:href="#DejaVuSans-64" transform="translate(405.912109 0)"/>
      <use xlink:href="#DejaVuSans-20" transform="translate(469.388672 0)"/>
      <use xlink:href="#DejaVuSans-28" transform="translate(501.175781 0)"/>
      <use xlink:href="#DejaVuSans-43" transform="translate(540.189453 0)"/>
      <use xlink:href="#DejaVuSans-29" transform="translate(610.013672 0)"/>
      <use xlink:href="#DejaVuSans-20" transform="translate(649.027344 0)"/>
      <use xlink:href="#DejaVuSans-31" transform="translate(680.814453 0)"/>
     </g>
    </g>
   </g>
  </g>
 </g>
 <defs>
  <clipPath id="p9435d1aff9">
   <rect x="60.3245" y="26.88" width="648.8755" height="363.16"/>
  </clipPath>
 </defs>
</svg>
